<svg xmlns="http://www.w3.org/2000/svg" viewBox="0 0 64 64" width="64" height="64">
  <rect width="64" height="64" rx="12" fill="#0f1318"/>
  <rect x="2.5" y="2.5" width="59" height="59" rx="10" fill="none" stroke="#283139" stroke-width="2"/>
  <!-- Erlenmeyer flask -->
  <path d="M26 14 h12 v2 h-2 v12 l9 18 a4 4 0 0 1 -3.6 5.7 H22.6 a4 4 0 0 1 -3.6 -5.7 l9 -18 V16 h-2 z"
        fill="none" stroke="#2ce3c4" stroke-width="2.4" stroke-linejoin="round"/>
  <!-- reactor fluid -->
  <path d="M27.4 36 h9.2 l5.2 10.4 a2 2 0 0 1 -1.8 2.9 H24 a2 2 0 0 1 -1.8 -2.9 z" fill="#13b9a0"/>
  <circle cx="29.5" cy="44" r="1.4" fill="#2ce3c4"/>
  <circle cx="34.5" cy="46" r="1" fill="#2ce3c4"/>
</svg>
